<svg width="1019" height="57" viewBox="0 0 1019 57" fill="none" xmlns="http://www.w3.org/2000/svg">
<path d="M1.00026 56.5C1.00026 50.8087 0.500961 18.645 14.4994 9.5C42.9421 -9.07916 44.2982 27.6344 78.2732 27.6344C112.248 27.6344 112.254 0.020752 146.229 0.020752C180.204 0.020752 180.21 27.6344 214.185 27.6344C248.16 27.6344 248.166 0.020752 282.147 0.020752C316.128 0.020752 316.123 27.6344 350.104 27.6344C384.085 27.6344 384.085 0.020752 418.06 0.020752C452.035 0.020752 452.04 27.6344 486.015 27.6344C519.99 27.6344 519.996 0.020752 553.971 0.020752C587.946 0.020752 587.953 27.6344 621.934 27.6344C655.915 27.6344 655.909 0.020752 689.89 0.020752C723.871 0.020752 723.871 27.6344 757.846 27.6344C791.821 27.6344 791.827 0.020752 825.802 0.020752C859.777 0.020752 859.782 27.6344 893.763 27.6344C927.744 27.6344 927.745 0.020752 961.726 0.020752C975.002 0.020752 985.002 4.72144 999.502 14.1913C1018.09 26.3293 1017 33.5 1019 57C975.628 57 37.5002 56.5 1.00026 56.5Z" fill="#00C3A9"/>
</svg>
