<svg width="1020" height="57" viewBox="0 0 1020 57" fill="none" xmlns="http://www.w3.org/2000/svg">
<path d="M0.998047 56C1.5 49 6.50152 16.645 20.5 7.5C48.9427 -11.0792 44.2996 27.6344 78.2746 27.6344C112.25 27.6344 112.256 0.020752 146.231 0.020752C180.206 0.020752 180.212 27.6344 214.187 27.6344C248.162 27.6344 248.168 0.020752 282.149 0.020752C316.13 0.020752 316.124 27.6344 350.105 27.6344C384.086 27.6344 384.086 0.020752 418.061 0.020752C452.036 0.020752 452.042 27.6344 486.017 27.6344C519.992 27.6344 519.998 0.020752 553.973 0.020752C587.948 0.020752 587.954 27.6344 621.935 27.6344C655.916 27.6344 655.91 0.020752 689.891 0.020752C723.872 0.020752 723.872 27.6344 757.847 27.6344C791.822 27.6344 791.828 0.020752 825.803 0.020752C859.778 0.020752 859.784 27.6344 893.765 27.6344C927.746 27.6344 927.746 0.020752 961.727 0.020752C975.004 0.020752 987.08 2.12585 999.504 14.1913C1006 20.5 1017 33.5 1019 57C975.63 57 37.498 56 0.998047 56Z" fill="#00C3A9"/>
</svg>
